name rise30.3154peak39.0474fall46.5389.mot
datacolumns 19
datarows 18
range 11.92662000000000 11.95496300000000
endheader
time	ground_force1_vx	ground_force1_vy	ground_force1_vz	ground_force1_px	ground_force1_py	ground_force1_pz	ground_force2_vx	ground_force2_vy	ground_force2_vz	ground_force2_px	ground_force2_py	ground_force2_pz	ground_torque1_x	ground_torque1_y	ground_torque1_z	ground_torque2_x	ground_torque2_y	ground_torque2_z	
11.92662000000000	9.53741400000000	683.02326000000005	36.92767200000000	0.24998700000000	0.00000000000000	0.08779900000000	0.00000000000000	0.00000000000000	0.00000000000000	0.00000000000000	0.00000000000000	0.00000000000000	0.00000000000000	15.98551600000000	0.00000000000000	0.00000000000000	0.00000000000000	0.00000000000000	
11.92829500000000	9.30735000000000	683.18573200000003	36.91942600000000	0.24937300000000	0.00000000000000	0.08772800000000	0.00000000000000	0.00000000000000	0.00000000000000	0.00000000000000	0.00000000000000	0.00000000000000	0.00000000000000	16.01635500000000	0.00000000000000	0.00000000000000	0.00000000000000	0.00000000000000	
11.92996100000000	9.07256300000000	683.41981299999998	36.91997400000000	0.24879700000000	0.00000000000000	0.08765600000000	0.00000000000000	0.00000000000000	0.00000000000000	0.00000000000000	0.00000000000000	0.00000000000000	0.00000000000000	16.05582300000000	0.00000000000000	0.00000000000000	0.00000000000000	0.00000000000000	
11.93162600000000	8.83227900000000	683.72491200000002	36.92902600000000	0.24825800000000	0.00000000000000	0.08758200000000	0.00000000000000	0.00000000000000	0.00000000000000	0.00000000000000	0.00000000000000	0.00000000000000	0.00000000000000	16.10371800000000	0.00000000000000	0.00000000000000	0.00000000000000	0.00000000000000	
11.93328900000000	8.58572800000000	684.10044300000004	36.94628700000000	0.24775200000000	0.00000000000000	0.08750600000000	0.00000000000000	0.00000000000000	0.00000000000000	0.00000000000000	0.00000000000000	0.00000000000000	0.00000000000000	16.15982400000000	0.00000000000000	0.00000000000000	0.00000000000000	0.00000000000000	
11.93496000000000	8.33214000000000	684.54582500000004	36.97146300000000	0.24727600000000	0.00000000000000	0.08743000000000	0.00000000000000	0.00000000000000	0.00000000000000	0.00000000000000	0.00000000000000	0.00000000000000	0.00000000000000	16.22391600000000	0.00000000000000	0.00000000000000	0.00000000000000	0.00000000000000	
11.93662800000000	8.07075500000000	685.06049099999996	37.00425600000000	0.24682800000000	0.00000000000000	0.08735200000000	0.00000000000000	0.00000000000000	0.00000000000000	0.00000000000000	0.00000000000000	0.00000000000000	0.00000000000000	16.29575700000000	0.00000000000000	0.00000000000000	0.00000000000000	0.00000000000000	
11.93829200000000	7.80082400000000	685.64388299999996	37.04437000000000	0.24640400000000	0.00000000000000	0.08727300000000	0.00000000000000	0.00000000000000	0.00000000000000	0.00000000000000	0.00000000000000	0.00000000000000	0.00000000000000	16.37510100000000	0.00000000000000	0.00000000000000	0.00000000000000	0.00000000000000	
11.93996400000000	7.52160800000000	686.29545900000005	37.09151100000000	0.24600000000000	0.00000000000000	0.08719400000000	0.00000000000000	0.00000000000000	0.00000000000000	0.00000000000000	0.00000000000000	0.00000000000000	0.00000000000000	16.46169500000000	0.00000000000000	0.00000000000000	0.00000000000000	0.00000000000000	
11.94162800000000	7.23238600000000	687.01468999999997	37.14538600000000	0.24561500000000	0.00000000000000	0.08711300000000	0.00000000000000	0.00000000000000	0.00000000000000	0.00000000000000	0.00000000000000	0.00000000000000	0.00000000000000	16.55527600000000	0.00000000000000	0.00000000000000	0.00000000000000	0.00000000000000	
11.94328900000000	6.93245500000000	687.80106000000001	37.20570700000000	0.24524300000000	0.00000000000000	0.08703200000000	0.00000000000000	0.00000000000000	0.00000000000000	0.00000000000000	0.00000000000000	0.00000000000000	0.00000000000000	16.65557300000000	0.00000000000000	0.00000000000000	0.00000000000000	0.00000000000000	
11.94496000000000	6.62113400000000	688.65407000000005	37.27218800000000	0.24488100000000	0.00000000000000	0.08695100000000	0.00000000000000	0.00000000000000	0.00000000000000	0.00000000000000	0.00000000000000	0.00000000000000	0.00000000000000	16.76231200000000	0.00000000000000	0.00000000000000	0.00000000000000	0.00000000000000	
11.94662300000000	6.29776600000000	689.57322999999997	37.34455000000000	0.24452700000000	0.00000000000000	0.08687000000000	0.00000000000000	0.00000000000000	0.00000000000000	0.00000000000000	0.00000000000000	0.00000000000000	0.00000000000000	16.87521000000000	0.00000000000000	0.00000000000000	0.00000000000000	0.00000000000000	
11.94829500000000	5.96172400000000	690.55806199999995	37.42252000000000	0.24417500000000	0.00000000000000	0.08678800000000	0.00000000000000	0.00000000000000	0.00000000000000	0.00000000000000	0.00000000000000	0.00000000000000	0.00000000000000	16.99398200000000	0.00000000000000	0.00000000000000	0.00000000000000	0.00000000000000	
11.94995900000000	5.61240900000000	691.60809500000005	37.50583000000000	0.24382300000000	0.00000000000000	0.08670700000000	0.00000000000000	0.00000000000000	0.00000000000000	0.00000000000000	0.00000000000000	0.00000000000000	0.00000000000000	17.11833700000000	0.00000000000000	0.00000000000000	0.00000000000000	0.00000000000000	
11.95162800000000	5.24925900000000	692.72286299999996	37.59422100000000	0.24346800000000	0.00000000000000	0.08662600000000	0.00000000000000	0.00000000000000	0.00000000000000	0.00000000000000	0.00000000000000	0.00000000000000	0.00000000000000	17.24798100000000	0.00000000000000	0.00000000000000	0.00000000000000	0.00000000000000	
11.95329000000000	4.87174500000000	693.90190199999995	37.68744100000000	0.24310500000000	0.00000000000000	0.08654500000000	0.00000000000000	0.00000000000000	0.00000000000000	0.00000000000000	0.00000000000000	0.00000000000000	0.00000000000000	17.38262000000000	0.00000000000000	0.00000000000000	0.00000000000000	0.00000000000000	
11.95496300000000	4.47937900000000	695.14474299999995	37.78524800000000	0.24273100000000	0.00000000000000	0.08646500000000	0.00000000000000	0.00000000000000	0.00000000000000	0.00000000000000	0.00000000000000	0.00000000000000	0.00000000000000	17.52195500000000	0.00000000000000	0.00000000000000	0.00000000000000	0.00000000000000	
